<?xml version="1.0" standalone="no"?>
<!DOCTYPE svg PUBLIC "-//W3C//DTD SVG 20010904//EN"
 "http://www.w3.org/TR/2001/REC-SVG-20010904/DTD/svg10.dtd">
<svg version="1.0" xmlns="http://www.w3.org/2000/svg"
 width="252.000000pt" height="274.000000pt" viewBox="0 0 252.000000 274.000000"
 preserveAspectRatio="xMidYMid meet">

<g transform="translate(0.000000,274.000000) scale(0.100000,-0.100000)"
fill="#000000" stroke="none">
<path d="M1880 2724 c-98 -31 -197 -137 -219 -234 -6 -26 -11 -204 -11 -428
l0 -384 33 7 c155 31 256 119 292 256 12 42 15 135 15 427 l0 372 -32 -1 c-18
0 -53 -7 -78 -15z"/>
<path d="M1070 2070 c0 -65 5 -104 20 -142 59 -157 205 -248 397 -248 l63 0 0
78 c0 240 -159 401 -397 402 l-83 0 0 -90z"/>
<path d="M41 1766 c-43 -24 -52 -70 -21 -104 19 -20 30 -22 149 -22 l129 0 10
-27 c188 -537 499 -1393 510 -1405 19 -22 75 -23 96 -2 32 31 27 58 -49 268
-41 115 -75 210 -75 212 0 2 359 3 798 2 l797 -3 3 -34 c3 -29 -5 -41 -67
-106 -78 -80 -90 -116 -51 -155 38 -38 66 -27 161 67 l89 87 0 393 0 394 -31
13 c-38 16 -65 11 -84 -17 -12 -17 -15 -66 -15 -259 l0 -238 -827 2 -827 3
-161 453 c-89 249 -170 461 -179 470 -14 14 -42 17 -174 20 -120 1 -163 -1
-181 -12z"/>
<path d="M1169 466 c-130 -46 -194 -193 -138 -316 72 -160 271 -198 394 -75
121 121 79 324 -81 391 -41 17 -127 17 -175 0z m152 -154 c51 -46 40 -125 -22
-158 -32 -16 -81 -12 -107 9 -25 20 -43 68 -37 97 17 78 106 106 166 52z"/>
<path d="M1880 459 c-94 -42 -143 -117 -143 -214 0 -72 19 -120 65 -167 74
-73 166 -94 260 -58 136 51 196 200 133 327 -58 115 -198 165 -315 112z m156
-137 c67 -54 48 -152 -34 -177 -32 -9 -87 12 -106 40 -43 66 4 155 81 155 21
0 48 -8 59 -18z"/>
</g>
</svg>
